<svg xmlns="http://www.w3.org/2000/svg" xmlns:xlink="http://www.w3.org/1999/xlink" width="2654" height="2654" viewBox="0 0 2654 2654">
  <defs>
    <linearGradient id="linear-gradient" y1="0.5" x2="1" y2="0.5" gradientUnits="objectBoundingBox">
      <stop offset="0" stop-color="#6625b0"/>
      <stop offset="1" stop-color="#943cf8"/>
    </linearGradient>
  </defs>
  <g id="logo" transform="translate(1515 -5901)">
    <g id="Rectangle_36" data-name="Rectangle 36" transform="translate(-1515 5901)" stroke="#707070" stroke-width="1" fill="url(#linear-gradient)">
      <rect width="2654" height="2654" stroke="none"/>
      <rect x="0.5" y="0.5" width="2653" height="2653" fill="none"/>
    </g>
    <g id="Ellipse_17" data-name="Ellipse 17" transform="translate(-1002 6369)" fill="#2d0b50" stroke="#707070" stroke-width="1">
      <circle cx="814.5" cy="814.5" r="814.5" stroke="none"/>
      <circle cx="814.5" cy="814.5" r="814" fill="none"/>
    </g>
    <g id="forex-2" transform="translate(-729.463 6686.537)">
      <g id="Group_406" data-name="Group 406" transform="translate(-0.5 -0.5)">
        <path id="Path_410" data-name="Path 410" d="M158.278-.5h59.277q168.664,43.33,157.72,218.055a202.422,202.422,0,0,1-41.282,92.091q20.686,21.216,42.341,41.282,115.984-90.9,256.162-43.4a230.526,230.526,0,0,1,71.979,42.341,2.645,2.645,0,0,0,4.234,0l40.224-40.224q-68.424-89.738-28.58-195.826Q764.525,20.4,865.371-.5h57.16q81.869,14.622,130.2,82.565,5.862,33.852-26.463,22.229Q951.57,4.378,833.615,45.016q-109.509,56.531-89.974,178.89,25.935,89.446,115.379,115.379,130.144,19.876,183.124-100.56a187.4,187.4,0,0,0,5.293-79.389q10.956-26.972,32.814-7.41a18.626,18.626,0,0,0,3.176,8.468v57.16q-42.832,167.12-215.938,157.72a196.024,196.024,0,0,1-94.208-41.282Q752.063,354.678,732,376.334q93.539,112.377,47.633,251.928a220.843,220.843,0,0,1-46.575,76.214,2.646,2.646,0,0,0,0,4.234l40.224,40.224q89.738-68.424,195.826-28.58,93.425,44.172,114.32,145.017v59.277q-30.019,130.576-160.9,158.778H867.488Q736.654,1055.8,707.651,924.648,696.4,839.962,748.933,773.279,728.248,752.063,706.592,732,590.608,822.9,450.43,775.4a230.527,230.527,0,0,1-71.979-42.341,2.646,2.646,0,0,0-4.234,0l-40.224,40.224q68.424,89.738,28.58,195.826-44.559,94.876-147.134,114.32H160.4Q29.517,1055.224-.5,924.648V865.371q43.33-168.664,218.055-157.72a202.422,202.422,0,0,1,92.091,41.282l41.282-41.282q-47.56-54.909-59.277-127.023,1.753-21.848,23.287-16.936a14.772,14.772,0,0,1,7.41,5.293q33.4,159.366,193.709,187.358,136.781,10.2,212.763-102.677Q802.132,517.743,705.534,397.5,596.723,289.363,452.547,343.52,343.686,396.536,321.291,516.059q-15.332,13.344-28.58-2.117a194.9,194.9,0,0,1,29.639-99.5,387.584,387.584,0,0,1,28.58-39.165l-41.282-41.282Q219.88,402.14,113.82,362.573,20.4,318.4-.5,217.555V158.278Q29.139,29.139,158.278-.5ZM185.8,31.256q125.8,8.839,155.6,131.257,11.543,116.134-92.091,168.3Q126.929,372.6,53.485,266.247-3.54,147,96.884,61.953A169.069,169.069,0,0,1,185.8,31.256Zm0,707.092Q311.6,747.186,341.4,869.6q11.543,116.134-92.091,168.3-122.382,41.784-195.826-64.57Q-3.54,854.088,96.884,769.045A169.064,169.064,0,0,1,185.8,738.348Zm707.092,0q125.8,8.838,155.6,131.257,11.543,116.134-92.091,168.3-122.383,41.784-195.826-64.57-57.024-119.252,43.4-204.295A169.062,169.062,0,0,1,892.892,738.348Z" transform="translate(0.5 0.5)" fill="#fff" fill-rule="evenodd" opacity="0.928"/>
      </g>
      <g id="Group_407" data-name="Group 407" transform="translate(117.84 71.127)">
        <path id="Path_411" data-name="Path 411" d="M68.315,33.686a1191.44,1191.44,0,0,1,120.671,3.176Q202.575,52.844,186.87,66.5l-31.756,2.117A122.294,122.294,0,0,1,165.7,91.9l21.17,2.117q11.788,8.262,7.41,22.229a15.9,15.9,0,0,1-9.527,9.527,106.787,106.787,0,0,1-21.17,1.059q-9.39,43.8-52.926,56.1l53.985,58.219q4.747,30.2-24.346,22.229L56.672,175.528q-3.487-12.719,5.293-22.229l46.575-6.351a46.8,46.8,0,0,0,19.053-17.995Q96.95,126.31,66.2,125.777q-14.508-8.07-9.527-24.346l7.41-7.41q31.808-.533,63.511-3.176-9.56-18.023-29.639-22.229L64.081,66.5Q50.575,55.638,58.789,40.037A36.48,36.48,0,0,1,68.315,33.686Z" transform="translate(-55.399 -33.334)" fill="#fff" fill-rule="evenodd" opacity="0.926"/>
      </g>
      <g id="Group_408" data-name="Group 408" transform="translate(814.609 79.698)">
        <path id="Path_412" data-name="Path 412" d="M479.742,37.632a147.323,147.323,0,0,1,40.224,3.176q13.264,15.731-2.117,29.639-86.89-5.746-61.394,77.272,21.2-.528,42.341,1.059,21.969,17.054-2.117,31.756l-40.224,2.117Q451.9,201.379,445.869,219.7q39.18-.53,78.331,1.059,15.706,13.655,2.117,29.639l-6.351,2.117a739.734,739.734,0,0,1-110.086-2.117q-11.759-10.784-7.41-26.463a112.673,112.673,0,0,0,17.995-42.341,86.465,86.465,0,0,1-29.639-3.176q-13.588-15.983,2.117-29.639a208.384,208.384,0,0,1,29.639-1.059Q396.129,62.987,479.742,37.632Z" transform="translate(-384.523 -37.382)" fill="#fff" fill-rule="evenodd" opacity="0.926"/>
      </g>
      <g id="Group_409" data-name="Group 409" transform="translate(456.781 367.575)">
        <path id="Path_413" data-name="Path 413" d="M293.831,173.653A22.951,22.951,0,0,1,313.943,180a69.626,69.626,0,0,1,3.176,27.522q70.259,1.978,66.687,71.979-13.249,15.459-28.58,2.117a68.5,68.5,0,0,1-5.293-21.17q-9.295-21.333-32.814-19.053v88.916q52.136-3.414,66.687,46.575a476.633,476.633,0,0,1,0,63.511q-15.37,48.723-66.687,46.575a128.99,128.99,0,0,1-1.059,23.287Q303.7,528.551,286.421,514.5a69.624,69.624,0,0,1-3.176-27.522Q212.986,485,216.559,415q13.248-15.459,28.58-2.117a68.5,68.5,0,0,1,5.293,21.17q9.295,21.333,32.814,19.053V364.187q-52.136,3.414-66.687-46.575a476.622,476.622,0,0,1,0-63.511q15.37-48.723,66.687-46.575a129,129,0,0,1,1.059-23.287A23.319,23.319,0,0,1,293.831,173.653ZM270.543,241.4h12.7v88.916q-24.423,3.941-32.814-19.053a305.223,305.223,0,0,1,0-50.809Q256.068,245.806,270.543,241.4Zm46.575,122.788q42.622,1.442,33.873,44.458,8.072,42.283-33.873,44.458Z" transform="translate(-215.5 -173.363)" fill="#fff" fill-rule="evenodd" opacity="0.934"/>
      </g>
      <g id="Group_410" data-name="Group 410" transform="translate(110.255 791.264)">
        <path id="Path_414" data-name="Path 414" d="M63.85,373.506a25.616,25.616,0,0,1,17.995,6.351q23.305,32.28,47.633,63.511,25.915-32.816,50.809-66.687,32.337-7.888,24.346,24.346-20.54,29.958-43.4,58.219a111.7,111.7,0,0,1,27.522,4.234q9.047,8.126,5.293,20.112a15.9,15.9,0,0,1-9.527,9.527,344.238,344.238,0,0,1-38.107,1.059v21.17a344.238,344.238,0,0,1,38.107,1.059q16.478,9.25,7.41,26.463a14.772,14.772,0,0,1-7.41,5.293,344.238,344.238,0,0,1-38.107,1.058q.528,21.2-1.059,42.341-15.878,21.171-31.756,0-1.587-21.143-1.059-42.341a344.232,344.232,0,0,1-38.107-1.058q-14.508-8.069-9.527-24.346a24.413,24.413,0,0,1,9.527-7.41,344.232,344.232,0,0,1,38.107-1.059v-21.17a344.232,344.232,0,0,1-38.107-1.059q-14.508-8.069-9.527-24.346L70.2,463.48a111.7,111.7,0,0,1,27.522-4.234Q73.8,428.865,52.206,396.793,49.649,380.737,63.85,373.506Z" transform="translate(-51.816 -373.495)" fill="#fff" fill-rule="evenodd" opacity="0.927"/>
      </g>
      <g id="Group_411" data-name="Group 411" transform="translate(784.518 797.625)">
        <path id="Path_415" data-name="Path 415" d="M495.619,376.5a119.066,119.066,0,0,1,50.809,11.644q10.489,12.051,3.176,26.463a18.878,18.878,0,0,1-12.7,4.234q-17.815-4.878-35.99-8.468a68.106,68.106,0,0,0-39.165,15.878l46.575,2.117q21.111,16.03,0,31.756l-67.745,2.117a41.425,41.425,0,0,0-1.059,22.229q36.582,1.689,73.038,5.293Q526.935,508.45,506.2,519.4l-44.458,2.117q31.384,24.283,67.745,8.468,31.733-3.83,20.112,26.463Q488.35,588.427,434.225,544.8a258.125,258.125,0,0,1-16.936-22.229A310.483,310.483,0,0,0,381.3,519.4q-15-7.733-9.527-24.346l5.293-5.293a69.626,69.626,0,0,1,27.522-3.176v-25.4a129,129,0,0,1-23.287-1.059q-15-7.732-9.527-24.346l5.293-5.293q19.857-3.452,40.224-5.293Q445.037,382.22,495.619,376.5Z" transform="translate(-370.309 -376.5)" fill="#fff" fill-rule="evenodd" opacity="0.93"/>
      </g>
    </g>
  </g>
</svg>
