<svg xmlns="http://www.w3.org/2000/svg" xmlns:xlink="http://www.w3.org/1999/xlink" width="1704" height="1704" viewBox="0 0 1704 1704">
  <defs>
    <filter id="Path_437" x="0" y="0" width="1704" height="1704" filterUnits="userSpaceOnUse">
      <feOffset dx="5" dy="5" input="SourceAlpha"/>
      <feGaussianBlur stdDeviation="12.5" result="blur"/>
      <feFlood flood-opacity="0.4"/>
      <feComposite operator="in" in2="blur"/>
      <feComposite in="SourceGraphic"/>
    </filter>
  </defs>
  <g transform="matrix(1, 0, 0, 1, 0, 0)" filter="url(#Path_437)">
    <g id="Path_437-2" data-name="Path 437" transform="translate(32.5 32.5)" fill="#2d0b50">
      <path d="M 814.5 1628.5 C 786.7338256835938 1628.5 758.7319946289062 1627.086059570312 731.2725830078125 1624.29736328125 C 704.2108154296875 1621.549194335938 677.0181884765625 1617.399047851562 650.4501953125 1611.96240234375 C 624.225830078125 1606.59619140625 597.9797973632812 1599.84765625 572.4412231445312 1591.904174804688 C 547.1881713867188 1584.0498046875 522.0264282226562 1574.840454101562 497.6546020507812 1564.531982421875 C 473.5079956054688 1554.31884765625 449.5679931640625 1542.786376953125 426.4996032714844 1530.255004882812 C 403.59521484375 1517.812377929688 381.0148010253906 1504.094360351562 359.3851928710938 1489.481811523438 C 337.8601989746094 1474.93994140625 316.7767944335938 1459.173950195312 296.7206115722656 1442.622192382812 C 276.7135925292969 1426.11083984375 257.2650146484375 1408.434814453125 238.9152069091797 1390.0849609375 C 220.5653991699219 1371.735229492188 202.8892059326172 1352.28662109375 186.3778076171875 1332.279418945312 C 169.8260040283203 1312.22314453125 154.0601959228516 1291.139770507812 139.5182037353516 1269.61474609375 C 124.9056015014648 1247.9853515625 111.1875991821289 1225.40478515625 98.74520111083984 1202.500366210938 C 86.21360015869141 1179.432006835938 74.68119812011719 1155.491943359375 64.46800231933594 1131.345458984375 C 54.15959930419922 1106.9736328125 44.95019912719727 1081.811767578125 37.09579849243164 1056.558959960938 C 29.15239906311035 1031.020141601562 22.40379905700684 1004.774169921875 17.03759956359863 978.5499877929688 C 11.60099983215332 951.9818115234375 7.450799942016602 924.7891845703125 4.702600002288818 897.7274169921875 C 1.914000034332275 870.2680053710938 0.5 842.2661743164062 0.5 814.5 C 0.5 786.7338256835938 1.914000034332275 758.7319946289062 4.702600002288818 731.2725830078125 C 7.450799942016602 704.2108154296875 11.60099983215332 677.0181884765625 17.03759956359863 650.4501953125 C 22.40379905700684 624.225830078125 29.15239906311035 597.9797973632812 37.09579849243164 572.4412231445312 C 44.95019912719727 547.1881713867188 54.15959930419922 522.0264282226562 64.46800231933594 497.6546020507812 C 74.68119812011719 473.5079956054688 86.21360015869141 449.5679931640625 98.74520111083984 426.4996032714844 C 111.1875991821289 403.59521484375 124.9056015014648 381.0148010253906 139.5182037353516 359.3851928710938 C 154.0601959228516 337.8601989746094 169.8260040283203 316.7767944335938 186.3778076171875 296.7206115722656 C 202.8892059326172 276.7135925292969 220.5653991699219 257.2650146484375 238.9152069091797 238.9152069091797 C 257.2650146484375 220.5653991699219 276.7135925292969 202.8892059326172 296.7206115722656 186.3778076171875 C 316.7767944335938 169.8260040283203 337.8601989746094 154.0601959228516 359.3851928710938 139.5182037353516 C 381.0148010253906 124.9056015014648 403.59521484375 111.1875991821289 426.4996032714844 98.74520111083984 C 449.5679931640625 86.21360015869141 473.5079956054688 74.68119812011719 497.6546020507812 64.46800231933594 C 522.0264282226562 54.15959930419922 547.1881713867188 44.95019912719727 572.4412231445312 37.09579849243164 C 597.9797973632812 29.15239906311035 624.225830078125 22.40379905700684 650.4501953125 17.03759956359863 C 677.0181884765625 11.60099983215332 704.2108154296875 7.450799942016602 731.2725830078125 4.702600002288818 C 758.7319946289062 1.914000034332275 786.7338256835938 0.5 814.5 0.5 C 842.2661743164062 0.5 870.2680053710938 1.914000034332275 897.7274169921875 4.702600002288818 C 924.7891845703125 7.450799942016602 951.9818115234375 11.60099983215332 978.5499877929688 17.03759956359863 C 1004.774169921875 22.40379905700684 1031.020141601562 29.15239906311035 1056.558959960938 37.09579849243164 C 1081.811767578125 44.95019912719727 1106.9736328125 54.15959930419922 1131.345458984375 64.46800231933594 C 1155.491943359375 74.68119812011719 1179.432006835938 86.21360015869141 1202.500366210938 98.74520111083984 C 1225.40478515625 111.1875991821289 1247.9853515625 124.9056015014648 1269.61474609375 139.5182037353516 C 1291.139770507812 154.0601959228516 1312.22314453125 169.8260040283203 1332.279418945312 186.3778076171875 C 1352.28662109375 202.8892059326172 1371.735229492188 220.5653991699219 1390.0849609375 238.9152069091797 C 1408.434814453125 257.2650146484375 1426.11083984375 276.7135925292969 1442.622192382812 296.7206115722656 C 1459.173950195312 316.7767944335938 1474.93994140625 337.8601989746094 1489.481811523438 359.3851928710938 C 1504.094360351562 381.0148010253906 1517.812377929688 403.59521484375 1530.255004882812 426.4996032714844 C 1542.786376953125 449.5679931640625 1554.31884765625 473.5079956054688 1564.531982421875 497.6546020507812 C 1574.840454101562 522.0264282226562 1584.0498046875 547.1881713867188 1591.904174804688 572.4412231445312 C 1599.84765625 597.9797973632812 1606.59619140625 624.225830078125 1611.96240234375 650.4501953125 C 1617.399047851562 677.0181884765625 1621.549194335938 704.2108154296875 1624.29736328125 731.2725830078125 C 1627.086059570312 758.7319946289062 1628.5 786.7338256835938 1628.5 814.5 C 1628.5 842.2661743164062 1627.086059570312 870.2680053710938 1624.29736328125 897.7274169921875 C 1621.549194335938 924.7891845703125 1617.399047851562 951.9818115234375 1611.96240234375 978.5499877929688 C 1606.59619140625 1004.774169921875 1599.84765625 1031.020141601562 1591.904174804688 1056.558959960938 C 1584.0498046875 1081.811767578125 1574.840454101562 1106.9736328125 1564.531982421875 1131.345458984375 C 1554.31884765625 1155.491943359375 1542.786376953125 1179.432006835938 1530.255004882812 1202.500366210938 C 1517.812377929688 1225.40478515625 1504.094360351562 1247.9853515625 1489.481811523438 1269.61474609375 C 1474.93994140625 1291.139770507812 1459.173950195312 1312.22314453125 1442.622192382812 1332.279418945312 C 1426.11083984375 1352.28662109375 1408.434814453125 1371.735229492188 1390.0849609375 1390.0849609375 C 1371.735229492188 1408.434814453125 1352.28662109375 1426.11083984375 1332.279418945312 1442.622192382812 C 1312.22314453125 1459.173950195312 1291.139770507812 1474.93994140625 1269.61474609375 1489.481811523438 C 1247.9853515625 1504.094360351562 1225.40478515625 1517.812377929688 1202.500366210938 1530.255004882812 C 1179.432006835938 1542.786376953125 1155.491943359375 1554.31884765625 1131.345458984375 1564.531982421875 C 1106.9736328125 1574.840454101562 1081.811767578125 1584.0498046875 1056.558959960938 1591.904174804688 C 1031.020141601562 1599.84765625 1004.774169921875 1606.59619140625 978.5499877929688 1611.96240234375 C 951.9818115234375 1617.399047851562 924.7891845703125 1621.549194335938 897.7274169921875 1624.29736328125 C 870.2680053710938 1627.086059570312 842.2661743164062 1628.5 814.5 1628.5 Z" stroke="none"/>
      <path d="M 814.5 1 C 786.7506103515625 1 758.7658081054688 2.4132080078125 731.3231811523438 5.199951171875 C 704.2780151367188 7.9466552734375 677.1019897460938 12.09423828125 650.5501708984375 17.52734375 C 624.3422241210938 22.890380859375 598.1124267578125 29.634765625 572.589599609375 37.5732421875 C 547.3524169921875 45.4228515625 522.2060546875 54.6263427734375 497.849365234375 64.9283447265625 C 473.7176513671875 75.1353759765625 449.7923583984375 86.66064453125 426.7381591796875 99.1844482421875 C 403.8480224609375 111.619140625 381.28125 125.328857421875 359.6650390625 139.932373046875 C 338.1531982421875 154.465576171875 317.082763671875 170.2218017578125 297.038818359375 186.763427734375 C 277.0438232421875 203.2647705078125 257.607177734375 220.9300537109375 239.2685546875 239.2685546875 C 220.9300537109375 257.607177734375 203.2647705078125 277.0438232421875 186.763427734375 297.038818359375 C 170.2218017578125 317.082763671875 154.465576171875 338.1531982421875 139.932373046875 359.6650390625 C 125.328857421875 381.28125 111.619140625 403.8480224609375 99.1844482421875 426.7381591796875 C 86.66064453125 449.7923583984375 75.1353759765625 473.7176513671875 64.9283447265625 497.849365234375 C 54.6263427734375 522.2060546875 45.4228515625 547.3524169921875 37.5732421875 572.589599609375 C 29.634765625 598.1124267578125 22.890380859375 624.3422241210938 17.52734375 650.5501708984375 C 12.09423828125 677.1019897460938 7.9466552734375 704.2780151367188 5.199951171875 731.3231811523438 C 2.4132080078125 758.7658081054688 1 786.7506103515625 1 814.5 C 1 842.2493896484375 2.4132080078125 870.2341918945312 5.199951171875 897.6768188476562 C 7.9466552734375 924.7219848632812 12.09423828125 951.8980102539062 17.52734375 978.4498291015625 C 22.890380859375 1004.657775878906 29.634765625 1030.887573242188 37.5732421875 1056.410400390625 C 45.4228515625 1081.647583007812 54.6263427734375 1106.7939453125 64.9283447265625 1131.150634765625 C 75.1353759765625 1155.282470703125 86.66064453125 1179.207641601562 99.1844482421875 1202.261840820312 C 111.619140625 1225.151977539062 125.328857421875 1247.71875 139.932373046875 1269.3349609375 C 154.465576171875 1290.846801757812 170.2218017578125 1311.917236328125 186.763427734375 1331.961181640625 C 203.2647705078125 1351.956176757812 220.9300537109375 1371.392822265625 239.2685546875 1389.7314453125 C 257.607177734375 1408.070068359375 277.0438232421875 1425.735229492188 297.038818359375 1442.236572265625 C 317.082763671875 1458.778198242188 338.1531982421875 1474.534423828125 359.6650390625 1489.067626953125 C 381.28125 1503.671142578125 403.8480224609375 1517.380859375 426.7381591796875 1529.815551757812 C 449.7923583984375 1542.33935546875 473.7176513671875 1553.864624023438 497.849365234375 1564.071655273438 C 522.2060546875 1574.373657226562 547.3524169921875 1583.5771484375 572.589599609375 1591.4267578125 C 598.1124267578125 1599.365234375 624.3422241210938 1606.109619140625 650.5501708984375 1611.47265625 C 677.1019897460938 1616.90576171875 704.2780151367188 1621.053344726562 731.3231811523438 1623.800048828125 C 758.7658081054688 1626.586791992188 786.7506103515625 1628 814.5 1628 C 842.2493896484375 1628 870.2341918945312 1626.586791992188 897.6768188476562 1623.800048828125 C 924.7219848632812 1621.053344726562 951.8980102539062 1616.90576171875 978.4498291015625 1611.47265625 C 1004.657775878906 1606.109619140625 1030.887573242188 1599.365234375 1056.410400390625 1591.4267578125 C 1081.647583007812 1583.5771484375 1106.7939453125 1574.373657226562 1131.150634765625 1564.071655273438 C 1155.282470703125 1553.864624023438 1179.207641601562 1542.33935546875 1202.261840820312 1529.815551757812 C 1225.151977539062 1517.380859375 1247.71875 1503.671142578125 1269.3349609375 1489.067626953125 C 1290.846801757812 1474.534423828125 1311.917236328125 1458.778198242188 1331.961181640625 1442.236572265625 C 1351.956176757812 1425.735229492188 1371.392822265625 1408.070068359375 1389.7314453125 1389.7314453125 C 1408.070068359375 1371.392822265625 1425.735229492188 1351.956176757812 1442.236572265625 1331.961181640625 C 1458.778198242188 1311.917236328125 1474.534423828125 1290.846801757812 1489.067626953125 1269.3349609375 C 1503.671142578125 1247.71875 1517.380859375 1225.151977539062 1529.815551757812 1202.261840820312 C 1542.33935546875 1179.207641601562 1553.864624023438 1155.282470703125 1564.071655273438 1131.150634765625 C 1574.373657226562 1106.7939453125 1583.5771484375 1081.647583007812 1591.4267578125 1056.410400390625 C 1599.365234375 1030.887573242188 1606.109619140625 1004.657775878906 1611.47265625 978.4498291015625 C 1616.90576171875 951.8980102539062 1621.053344726562 924.7219848632812 1623.800048828125 897.6768188476562 C 1626.586791992188 870.2341918945312 1628 842.2493896484375 1628 814.5 C 1628 786.7506103515625 1626.586791992188 758.7658081054688 1623.800048828125 731.3231811523438 C 1621.053344726562 704.2780151367188 1616.90576171875 677.1019897460938 1611.47265625 650.5501708984375 C 1606.109619140625 624.3422241210938 1599.365234375 598.1124267578125 1591.4267578125 572.589599609375 C 1583.5771484375 547.3524169921875 1574.373657226562 522.2060546875 1564.071655273438 497.849365234375 C 1553.864624023438 473.7176513671875 1542.33935546875 449.7923583984375 1529.815551757812 426.7381591796875 C 1517.380859375 403.8480224609375 1503.671142578125 381.28125 1489.067626953125 359.6650390625 C 1474.534423828125 338.1531982421875 1458.778198242188 317.082763671875 1442.236572265625 297.038818359375 C 1425.735229492188 277.0438232421875 1408.070068359375 257.607177734375 1389.7314453125 239.2685546875 C 1371.392822265625 220.9300537109375 1351.956176757812 203.2647705078125 1331.961181640625 186.763427734375 C 1311.917236328125 170.2218017578125 1290.846801757812 154.465576171875 1269.3349609375 139.932373046875 C 1247.71875 125.328857421875 1225.151977539062 111.619140625 1202.261840820312 99.1844482421875 C 1179.207641601562 86.66064453125 1155.282470703125 75.1353759765625 1131.150634765625 64.9283447265625 C 1106.7939453125 54.6263427734375 1081.647583007812 45.4228515625 1056.410400390625 37.5732421875 C 1030.887573242188 29.634765625 1004.657775878906 22.890380859375 978.4498291015625 17.52734375 C 951.8980102539062 12.09423828125 924.7219848632812 7.9466552734375 897.6768188476562 5.199951171875 C 870.2341918945312 2.4132080078125 842.2493896484375 1 814.5 1 M 814.5 0 C 1264.3359375 0 1629 364.6639404296875 1629 814.5 C 1629 1264.3359375 1264.3359375 1629 814.5 1629 C 364.6639404296875 1629 0 1264.3359375 0 814.5 C 0 364.6639404296875 364.6639404296875 0 814.5 0 Z" stroke="none" fill="#707070"/>
    </g>
  </g>
</svg>
