<?xml version="1.0" encoding="UTF-8"?>
<!DOCTYPE svg PUBLIC "-//W3C//DTD SVG 1.1//EN" "http://www.w3.org/Graphics/SVG/1.1/DTD/svg11.dtd">
<svg xmlns="http://www.w3.org/2000/svg" version="1.1" width="512px" height="512px" style="shape-rendering:geometricPrecision; text-rendering:geometricPrecision; image-rendering:optimizeQuality; fill-rule:evenodd; clip-rule:evenodd" xmlns:xlink="http://www.w3.org/1999/xlink">
<g><path style="opacity:0.886" fill="#000000" d="M 39.5,-0.5 C 41.5,-0.5 43.5,-0.5 45.5,-0.5C 46.4984,155.097 46.8318,310.763 46.5,466.5C 200.167,466.333 353.834,466.5 507.5,467C 509.418,468.77 509.918,470.937 509,473.5C 508.25,474.126 507.416,474.626 506.5,475C 500.509,475.499 494.509,475.666 488.5,475.5C 488.666,483.507 488.5,491.507 488,499.5C 485.333,502.167 482.667,502.167 480,499.5C 479.5,491.507 479.334,483.507 479.5,475.5C 468.833,475.5 458.167,475.5 447.5,475.5C 447.831,483.86 447.498,492.193 446.5,500.5C 443.22,502.283 440.72,501.617 439,498.5C 438.5,490.841 438.334,483.174 438.5,475.5C 428.167,475.5 417.833,475.5 407.5,475.5C 407.666,483.507 407.5,491.507 407,499.5C 404.333,502.167 401.667,502.167 399,499.5C 398.5,491.507 398.334,483.507 398.5,475.5C 387.833,475.5 377.167,475.5 366.5,475.5C 366.666,483.84 366.5,492.173 366,500.5C 363.667,501.833 361.333,501.833 359,500.5C 358.5,492.173 358.334,483.84 358.5,475.5C 347.833,475.5 337.167,475.5 326.5,475.5C 326.666,483.507 326.5,491.507 326,499.5C 323.333,502.167 320.667,502.167 318,499.5C 317.5,491.507 317.334,483.507 317.5,475.5C 307.167,475.5 296.833,475.5 286.5,475.5C 286.666,483.174 286.5,490.841 286,498.5C 283.822,502.065 281.156,502.399 278,499.5C 277.5,491.507 277.334,483.507 277.5,475.5C 266.833,475.5 256.167,475.5 245.5,475.5C 245.666,483.507 245.5,491.507 245,499.5C 241.844,502.399 239.178,502.065 237,498.5C 236.5,490.841 236.334,483.174 236.5,475.5C 226.167,475.5 215.833,475.5 205.5,475.5C 205.666,483.174 205.5,490.841 205,498.5C 202.822,502.065 200.156,502.399 197,499.5C 196.5,491.507 196.334,483.507 196.5,475.5C 185.833,475.5 175.167,475.5 164.5,475.5C 164.831,483.86 164.498,492.193 163.5,500.5C 160.22,502.283 157.72,501.617 156,498.5C 155.5,490.841 155.334,483.174 155.5,475.5C 145.167,475.5 134.833,475.5 124.5,475.5C 124.666,483.507 124.5,491.507 124,499.5C 121.333,502.167 118.667,502.167 116,499.5C 115.5,491.507 115.334,483.507 115.5,475.5C 104.833,475.5 94.1667,475.5 83.5,475.5C 83.6664,483.84 83.4997,492.173 83,500.5C 80.6667,501.833 78.3333,501.833 76,500.5C 75.5003,492.173 75.3336,483.84 75.5,475.5C 65.8333,475.5 56.1667,475.5 46.5,475.5C 46.8119,487.58 46.4786,499.58 45.5,511.5C 43.5,511.5 41.5,511.5 39.5,511.5C 39.0133,510.527 38.5133,509.527 38,508.5C 37.5002,497.505 37.3335,486.505 37.5,475.5C 26.495,475.667 15.495,475.5 4.5,475C 2.14835,474.424 1.14835,472.924 1.5,470.5C 1.70919,469.006 2.37586,467.839 3.5,467C 14.8284,466.5 26.1618,466.333 37.5,466.5C 37.5,457.833 37.5,449.167 37.5,440.5C 29.4931,440.666 21.4931,440.5 13.5,440C 10.8333,437.333 10.8333,434.667 13.5,432C 21.4931,431.5 29.4931,431.334 37.5,431.5C 37.5,420.833 37.5,410.167 37.5,399.5C 29.16,399.666 20.8267,399.5 12.5,399C 11.1667,396.667 11.1667,394.333 12.5,392C 20.8267,391.5 29.16,391.334 37.5,391.5C 37.5,380.833 37.5,370.167 37.5,359.5C 29.4931,359.666 21.4931,359.5 13.5,359C 10.8333,356.333 10.8333,353.667 13.5,351C 21.4931,350.5 29.4931,350.334 37.5,350.5C 37.5,340.167 37.5,329.833 37.5,319.5C 29.8261,319.666 22.1594,319.5 14.5,319C 10.9345,316.822 10.6012,314.156 13.5,311C 21.4931,310.5 29.4931,310.334 37.5,310.5C 37.5,299.833 37.5,289.167 37.5,278.5C 29.4931,278.666 21.4931,278.5 13.5,278C 10.6012,274.844 10.9345,272.178 14.5,270C 22.1594,269.5 29.8261,269.334 37.5,269.5C 37.5,259.167 37.5,248.833 37.5,238.5C 29.8261,238.666 22.1594,238.5 14.5,238C 10.9345,235.822 10.6012,233.156 13.5,230C 21.4931,229.5 29.4931,229.334 37.5,229.5C 37.5,218.833 37.5,208.167 37.5,197.5C 29.16,197.666 20.8267,197.5 12.5,197C 11.1667,194.667 11.1667,192.333 12.5,190C 20.8267,189.5 29.16,189.334 37.5,189.5C 37.5,178.833 37.5,168.167 37.5,157.5C 29.4931,157.666 21.4931,157.5 13.5,157C 10.8333,154.333 10.8333,151.667 13.5,149C 21.4931,148.5 29.4931,148.334 37.5,148.5C 37.5,137.833 37.5,127.167 37.5,116.5C 29.16,116.666 20.8267,116.5 12.5,116C 11.1667,113.667 11.1667,111.333 12.5,109C 20.8267,108.5 29.16,108.334 37.5,108.5C 37.5,97.8333 37.5,87.1667 37.5,76.5C 29.4931,76.6664 21.4931,76.4997 13.5,76C 10.8333,73.3333 10.8333,70.6667 13.5,68C 21.4931,67.5003 29.4931,67.3336 37.5,67.5C 37.5,57.1667 37.5,46.8333 37.5,36.5C 29.8261,36.6664 22.1594,36.4997 14.5,36C 10.9345,33.8225 10.6012,31.1558 13.5,28C 21.4931,27.5003 29.4931,27.3336 37.5,27.5C 37.3336,19.16 37.5003,10.8267 38,2.5C 38.5133,1.47344 39.0133,0.473444 39.5,-0.5 Z"/></g>
<g><path style="opacity:0.86" fill="#000000" d="M 388.5,66.5 C 403.882,66.1826 419.215,66.5159 434.5,67.5C 435.192,68.0253 435.692,68.6919 436,69.5C 436.667,82.5 436.667,95.5 436,108.5C 433.333,111.167 430.667,111.167 428,108.5C 427.667,99.8333 427.333,91.1667 427,82.5C 403.833,105.667 380.667,128.833 357.5,152C 354.697,152.755 352.03,152.422 349.5,151C 324.233,135.117 298.733,119.617 273,104.5C 245.505,131.996 218.671,160.163 192.5,189C 188.57,190.421 185.903,189.254 184.5,185.5C 186.138,182.696 187.971,180.029 190,177.5C 216.5,149.667 243,121.833 269.5,94C 272.419,93.4484 275.086,94.1151 277.5,96C 302.854,112.164 328.521,127.497 354.5,142C 376.5,120 398.5,98 420.5,76C 409.833,75.6667 399.167,75.3333 388.5,75C 387.061,74.0094 386.061,72.676 385.5,71C 386.386,69.3853 387.386,67.8853 388.5,66.5 Z"/></g>
<g><path style="opacity:0.873" fill="#000000" d="M 81.5,123.5 C 98.17,123.333 114.837,123.5 131.5,124C 132.667,124.5 133.5,125.333 134,126.5C 134.667,172.833 134.667,219.167 134,265.5C 133.5,266.667 132.667,267.5 131.5,268C 124.842,268.5 118.175,268.666 111.5,268.5C 111.667,290.169 111.5,311.836 111,333.5C 109.216,337.779 106.55,338.446 103,335.5C 102.5,313.169 102.333,290.836 102.5,268.5C 95.4921,268.666 88.4921,268.5 81.5,268C 80.3333,267.5 79.5,266.667 79,265.5C 78.3333,219.167 78.3333,172.833 79,126.5C 80.045,125.627 80.8783,124.627 81.5,123.5 Z M 87.5,132.5 C 100.167,132.5 112.833,132.5 125.5,132.5C 125.5,174.833 125.5,217.167 125.5,259.5C 112.833,259.5 100.167,259.5 87.5,259.5C 87.5,217.167 87.5,174.833 87.5,132.5 Z"/></g>
<g><path style="opacity:0.894" fill="#000000" d="M 191.5,213.5 C 194.044,213.104 196.211,213.771 198,215.5C 198.5,230.83 198.667,246.163 198.5,261.5C 205.841,261.334 213.174,261.5 220.5,262C 221.126,262.75 221.626,263.584 222,264.5C 222.667,305.167 222.667,345.833 222,386.5C 221.626,387.416 221.126,388.25 220.5,389C 213.174,389.5 205.841,389.666 198.5,389.5C 198.667,402.504 198.5,415.504 198,428.5C 194.606,430.275 191.94,429.608 190,426.5C 189.5,414.171 189.333,401.838 189.5,389.5C 182.492,389.666 175.492,389.5 168.5,389C 168,388.5 167.5,388 167,387.5C 166.333,346.167 166.333,304.833 167,263.5C 167.5,263 168,262.5 168.5,262C 175.492,261.5 182.492,261.334 189.5,261.5C 189.333,246.83 189.5,232.163 190,217.5C 190.41,216.099 190.91,214.766 191.5,213.5 Z M 175.5,269.5 C 188.167,269.5 200.833,269.5 213.5,269.5C 213.5,306.833 213.5,344.167 213.5,381.5C 200.833,381.5 188.167,381.5 175.5,381.5C 175.5,344.167 175.5,306.833 175.5,269.5 Z"/></g>
<g><path style="opacity:0.873" fill="#000000" d="M 367.5,220.5 C 370.044,220.104 372.211,220.771 374,222.5C 374.5,244.497 374.667,266.497 374.5,288.5C 381.508,288.334 388.508,288.5 395.5,289C 396,289.5 396.5,290 397,290.5C 397.667,309.167 397.667,327.833 397,346.5C 396.25,347.126 395.416,347.626 394.5,348C 387.842,348.5 381.175,348.666 374.5,348.5C 374.667,370.503 374.5,392.503 374,414.5C 370.844,417.399 368.178,417.065 366,413.5C 365.5,391.836 365.333,370.169 365.5,348.5C 358.825,348.666 352.158,348.5 345.5,348C 344.692,347.692 344.025,347.192 343.5,346.5C 342.846,337.212 342.513,327.878 342.5,318.5C 342.358,308.738 342.858,299.071 344,289.5C 351.079,288.52 358.245,288.187 365.5,288.5C 365.333,266.831 365.5,245.164 366,223.5C 366.513,222.473 367.013,221.473 367.5,220.5 Z M 351.5,297.5 C 363.833,297.5 376.167,297.5 388.5,297.5C 388.5,311.5 388.5,325.5 388.5,339.5C 376.167,339.5 363.833,339.5 351.5,339.5C 351.5,325.5 351.5,311.5 351.5,297.5 Z"/></g>
<g><path style="opacity:0.886" fill="#000000" d="M 255.5,241.5 C 272.837,241.333 290.17,241.5 307.5,242C 308,242.5 308.5,243 309,243.5C 309.667,281.833 309.667,320.167 309,358.5C 308.5,359 308,359.5 307.5,360C 300.508,360.5 293.508,360.666 286.5,360.5C 286.667,382.503 286.5,404.503 286,426.5C 284.06,429.608 281.394,430.275 278,428.5C 277.5,405.836 277.333,383.169 277.5,360.5C 270.159,360.666 262.826,360.5 255.5,360C 254.874,359.25 254.374,358.416 254,357.5C 253.333,319.833 253.333,282.167 254,244.5C 254.513,243.473 255.013,242.473 255.5,241.5 Z M 262.5,249.5 C 275.167,249.5 287.833,249.5 300.5,249.5C 300.5,283.5 300.5,317.5 300.5,351.5C 287.833,351.5 275.167,351.5 262.5,351.5C 262.5,317.5 262.5,283.5 262.5,249.5 Z"/></g>
<g><path style="opacity:0.875" fill="#000000" d="M 457.5,245.5 C 459.722,245.178 461.556,245.845 463,247.5C 463.5,269.497 463.667,291.497 463.5,313.5C 469.842,313.334 476.175,313.5 482.5,314C 483.766,314.309 484.933,314.809 486,315.5C 486.667,334.167 486.667,352.833 486,371.5C 485.5,372 485,372.5 484.5,373C 477.508,373.5 470.508,373.666 463.5,373.5C 463.667,395.836 463.5,418.169 463,440.5C 459.606,442.275 456.94,441.608 455,438.5C 454.5,416.836 454.333,395.169 454.5,373.5C 447.245,373.813 440.079,373.48 433,372.5C 431.858,363.096 431.358,353.596 431.5,344C 431.358,334.404 431.858,324.904 433,315.5C 433.75,314.874 434.584,314.374 435.5,314C 441.825,313.5 448.158,313.334 454.5,313.5C 454.333,291.831 454.5,270.164 455,248.5C 455.698,247.309 456.531,246.309 457.5,245.5 Z M 440.5,322.5 C 452.833,322.5 465.167,322.5 477.5,322.5C 477.5,336.5 477.5,350.5 477.5,364.5C 465.167,364.5 452.833,364.5 440.5,364.5C 440.5,350.5 440.5,336.5 440.5,322.5 Z"/></g>
</svg>
