<?xml version="1.0" encoding="UTF-8"?>
<!DOCTYPE svg PUBLIC "-//W3C//DTD SVG 1.1//EN" "http://www.w3.org/Graphics/SVG/1.1/DTD/svg11.dtd">
<svg xmlns="http://www.w3.org/2000/svg" version="1.1" width="512px" height="512px" style="shape-rendering:geometricPrecision; text-rendering:geometricPrecision; image-rendering:optimizeQuality; fill-rule:evenodd; clip-rule:evenodd" xmlns:xlink="http://www.w3.org/1999/xlink">
<g><path style="opacity:0.928" fill="#000000" d="M 74.5,-0.5 C 83.8333,-0.5 93.1667,-0.5 102.5,-0.5C 155.613,13.1448 180.447,47.4781 177,102.5C 174.153,118.69 167.653,133.19 157.5,146C 164.014,152.681 170.681,159.181 177.5,165.5C 214.024,136.875 254.357,130.042 298.5,145C 311.118,149.636 322.451,156.303 332.5,165C 333.167,165.667 333.833,165.667 334.5,165C 340.833,158.667 347.167,152.333 353.5,146C 331.953,117.741 327.453,86.9077 340,53.5C 353.91,24.0803 376.744,6.08032 408.5,-0.5C 417.5,-0.5 426.5,-0.5 435.5,-0.5C 461.281,4.10442 481.781,17.1044 497,38.5C 498.846,49.16 494.68,52.66 484.5,49C 460.978,17.536 430.644,8.20266 393.5,21C 359.015,38.802 344.849,66.9687 351,105.5C 359.167,133.667 377.333,151.833 405.5,160C 446.483,166.259 475.316,150.426 492,112.5C 495.52,100.145 496.353,87.6451 494.5,75C 497.95,66.5065 503.117,65.3399 510,71.5C 510.21,73.0581 510.71,74.3915 511.5,75.5C 511.5,84.5 511.5,93.5 511.5,102.5C 498.012,155.127 464.012,179.961 409.5,177C 392.892,174.444 378.059,167.944 365,157.5C 358.319,164.014 351.819,170.681 345.5,177.5C 374.956,212.888 382.456,252.555 368,296.5C 363.079,310.063 355.746,322.063 346,332.5C 345.333,333.167 345.333,333.833 346,334.5C 352.333,340.833 358.667,347.167 365,353.5C 393.259,331.953 424.092,327.453 457.5,340C 486.92,353.91 504.92,376.744 511.5,408.5C 511.5,417.833 511.5,427.167 511.5,436.5C 502.047,477.619 476.714,502.619 435.5,511.5C 426.833,511.5 418.167,511.5 409.5,511.5C 368.3,502.8 343.133,477.8 334,436.5C 330.457,409.832 336.957,385.999 353.5,365C 346.986,358.319 340.319,351.819 333.5,345.5C 296.976,374.125 256.643,380.958 212.5,366C 199.882,361.364 188.549,354.697 178.5,346C 177.833,345.333 177.167,345.333 176.5,346C 170.167,352.333 163.833,358.667 157.5,365C 179.047,393.259 183.547,424.092 171,457.5C 156.968,487.377 133.801,505.377 101.5,511.5C 92.8333,511.5 84.1667,511.5 75.5,511.5C 34.2859,502.619 8.95257,477.619 -0.5,436.5C -0.5,427.167 -0.5,417.833 -0.5,408.5C 13.1448,355.387 47.4781,330.553 102.5,334C 118.69,336.847 133.19,343.347 146,353.5C 152.5,347 159,340.5 165.5,334C 150.523,316.709 141.19,296.709 137.5,274C 138.052,267.12 141.719,264.453 148.5,266C 149.931,266.465 151.097,267.299 152,268.5C 162.518,318.685 193.018,348.185 243.5,357C 286.573,360.211 320.073,344.045 344,308.5C 367.086,265.697 363.419,225.364 333,187.5C 298.735,153.446 258.901,144.946 213.5,162C 179.219,178.695 158.552,205.862 151.5,243.5C 146.672,247.702 142.172,247.368 138,242.5C 138.397,225.634 143.064,209.968 152,195.5C 156.113,189.053 160.613,182.886 165.5,177C 159,170.5 152.5,164 146,157.5C 117.732,178.96 86.8987,183.46 53.5,171C 24.0803,157.09 6.08032,134.256 -0.5,102.5C -0.5,93.1667 -0.5,83.8333 -0.5,74.5C 8.83333,33.8333 33.8333,8.83333 74.5,-0.5 Z M 87.5,14.5 C 127.115,17.2833 151.615,37.95 161,76.5C 164.635,113.071 150.135,139.571 117.5,156C 78.9614,169.158 48.1281,158.991 25,125.5C 7.04269,87.9475 13.876,55.7808 45.5,29C 58.2221,20.1613 72.2221,15.328 87.5,14.5 Z M 87.5,348.5 C 127.115,351.283 151.615,371.95 161,410.5C 164.635,447.071 150.135,473.571 117.5,490C 78.9614,503.158 48.1281,492.991 25,459.5C 7.04269,421.947 13.876,389.781 45.5,363C 58.2221,354.161 72.2221,349.328 87.5,348.5 Z M 421.5,348.5 C 461.115,351.283 485.615,371.95 495,410.5C 498.635,447.071 484.135,473.571 451.5,490C 412.961,503.158 382.128,492.991 359,459.5C 341.043,421.947 347.876,389.781 379.5,363C 392.222,354.161 406.222,349.328 421.5,348.5 Z"/></g>
<g><path style="opacity:0.926" fill="#000000" d="M 61.5,33.5 C 80.5682,33.038 99.5682,33.538 118.5,35C 122.779,40.033 122.446,44.6997 117.5,49C 112.5,49.3333 107.5,49.6667 102.5,50C 104.554,53.4984 106.221,57.1651 107.5,61C 110.833,61.3333 114.167,61.6667 117.5,62C 121.212,64.6019 122.378,68.1019 121,72.5C 120.167,74.6667 118.667,76.1667 116.5,77C 113.183,77.4983 109.85,77.665 106.5,77.5C 103.543,91.2931 95.2098,100.126 81.5,104C 90,113.167 98.5,122.333 107,131.5C 108.495,141.009 104.661,144.509 95.5,142C 82.3333,128.167 69.1667,114.333 56,100.5C 54.9019,96.4948 55.7352,92.9948 58.5,90C 65.8333,89 73.1667,88 80.5,87C 84.3079,85.0255 87.3079,82.1922 89.5,78.5C 79.8505,77.6679 70.1838,77.1679 60.5,77C 55.9315,74.4586 54.4315,70.6253 56,65.5C 57.1667,64.3333 58.3333,63.1667 59.5,62C 69.5166,61.8322 79.5166,61.3322 89.5,60.5C 86.4895,54.8245 81.8228,51.3245 75.5,50C 70.1667,49.6667 64.8333,49.3333 59.5,49C 55.2468,45.5796 54.4135,41.4129 57,36.5C 58.4087,35.2189 59.9087,34.2189 61.5,33.5 Z"/></g>
<g><path style="opacity:0.926" fill="#000000" d="M 429.5,37.5 C 435.925,37.1304 442.258,37.6304 448.5,39C 452.677,43.9538 452.343,48.6204 447.5,53C 420.138,51.1906 410.471,63.3573 418.5,89.5C 425.175,89.3337 431.842,89.5004 438.5,90C 445.418,95.3705 445.084,100.37 437.5,105C 431.167,105.333 424.833,105.667 418.5,106C 417.067,111.898 415.4,117.731 413.5,123.5C 425.838,123.333 438.171,123.5 450.5,124C 455.446,128.3 455.779,132.967 451.5,138C 450.5,138.333 449.5,138.667 448.5,139C 431.1,139.958 413.767,139.624 396.5,138C 392.797,134.604 391.631,130.437 393,125.5C 397.212,119.41 400.046,112.743 401.5,105.5C 396.733,105.809 392.066,105.309 387.5,104C 383.221,98.967 383.554,94.3003 388.5,90C 393.155,89.5008 397.821,89.3342 402.5,89.5C 394.17,62.818 403.17,45.4847 429.5,37.5 Z"/></g>
<g><path style="opacity:0.934" fill="#000000" d="M 252.5,173.5 C 256.192,172.971 259.358,173.971 262,176.5C 263.367,180.7 263.867,185.033 263.5,189.5C 285.625,190.123 296.125,201.456 295,223.5C 290.828,228.368 286.328,228.702 281.5,224.5C 280.134,221.308 279.301,217.974 279,214.5C 276.073,207.782 270.906,204.782 263.5,205.5C 263.5,219.5 263.5,233.5 263.5,247.5C 279.918,246.425 290.418,253.758 295,269.5C 295.667,279.5 295.667,289.5 295,299.5C 290.16,314.843 279.66,322.177 263.5,321.5C 263.665,325.182 263.499,328.848 263,332.5C 259.108,338.259 254.441,338.926 249,334.5C 247.633,330.3 247.133,325.967 247.5,321.5C 225.375,320.877 214.875,309.544 216,287.5C 220.172,282.632 224.672,282.298 229.5,286.5C 230.866,289.692 231.699,293.026 232,296.5C 234.927,303.218 240.094,306.218 247.5,305.5C 247.5,291.5 247.5,277.5 247.5,263.5C 231.082,264.575 220.582,257.242 216,241.5C 215.333,231.5 215.333,221.5 216,211.5C 220.84,196.157 231.34,188.823 247.5,189.5C 247.335,185.818 247.501,182.152 248,178.5C 249.025,176.313 250.525,174.646 252.5,173.5 Z M 241.5,205.5 C 243.5,205.5 245.5,205.5 247.5,205.5C 247.5,219.5 247.5,233.5 247.5,247.5C 239.809,248.741 234.643,245.741 232,238.5C 231.333,230.5 231.333,222.5 232,214.5C 233.775,209.888 236.942,206.888 241.5,205.5 Z M 263.5,263.5 C 276.922,263.954 282.255,270.954 279.5,284.5C 282.042,297.815 276.708,304.815 263.5,305.5C 263.5,291.5 263.5,277.5 263.5,263.5 Z"/></g>
<g><path style="opacity:0.927" fill="#000000" d="M 57.5,373.5 C 60.7472,373.415 63.5806,374.415 66,376.5C 73.339,386.665 80.839,396.665 88.5,406.5C 96.6607,396.166 104.661,385.666 112.5,375C 122.683,372.516 126.516,376.35 124,386.5C 117.532,395.934 110.699,405.101 103.5,414C 107.951,414.13 112.284,414.796 116.5,416C 119.349,418.559 120.183,421.726 119,425.5C 118.167,427.667 116.667,429.167 114.5,430C 108.509,430.499 102.509,430.666 96.5,430.5C 96.5,433.833 96.5,437.167 96.5,440.5C 102.509,440.334 108.509,440.501 114.5,441C 119.689,443.913 120.856,448.08 118,453.5C 117.097,454.701 115.931,455.535 114.5,456C 108.509,456.499 102.509,456.666 96.5,456.5C 96.6663,463.175 96.4996,469.842 96,476.5C 91,483.167 86,483.167 81,476.5C 80.5004,469.842 80.3337,463.175 80.5,456.5C 74.4908,456.666 68.4908,456.499 62.5,456C 57.9315,453.459 56.4315,449.625 58,444.5C 59.214,442.951 60.714,441.785 62.5,441C 68.4908,440.501 74.4908,440.334 80.5,440.5C 80.5,437.167 80.5,433.833 80.5,430.5C 74.4908,430.666 68.4908,430.499 62.5,430C 57.9315,427.459 56.4315,423.625 58,418.5C 58.8333,417.667 59.6667,416.833 60.5,416C 64.7159,414.796 69.0492,414.13 73.5,414C 65.9665,404.433 58.7998,394.599 52,384.5C 51.1948,379.444 53.0281,375.777 57.5,373.5 Z"/></g>
<g><path style="opacity:0.93" fill="#000000" d="M 429.5,376.5 C 437.92,376.564 445.92,378.397 453.5,382C 456.803,385.795 457.303,389.962 455,394.5C 453.261,395.894 451.261,396.561 449,396.5C 443.39,394.964 437.723,393.631 432,392.5C 425.004,393.052 418.838,395.552 413.5,400C 420.833,400.333 428.167,400.667 435.5,401C 442.148,406.048 442.148,411.048 435.5,416C 424.833,416.333 414.167,416.667 403.5,417C 402.378,420.409 402.211,423.909 403,427.5C 414.52,428.032 426.02,428.865 437.5,430C 442.028,435.885 441.028,440.551 434.5,444C 427.5,444.333 420.5,444.667 413.5,445C 423.383,452.647 434.05,453.981 445.5,449C 455.493,447.794 458.66,451.961 455,461.5C 435.711,471.57 417.544,469.736 400.5,456C 397.642,452.642 394.975,449.142 392.5,445.5C 386.862,444.67 381.196,444.17 375.5,444C 370.776,441.565 369.276,437.731 371,432.5C 371.833,431.667 372.667,430.833 373.5,430C 377.7,428.633 382.033,428.133 386.5,428.5C 386.5,424.5 386.5,420.5 386.5,416.5C 382.818,416.665 379.152,416.499 375.5,416C 370.776,413.565 369.276,409.731 371,404.5C 371.833,403.667 372.667,402.833 373.5,402C 379.753,400.913 386.087,400.08 392.5,399.5C 401.238,385.968 413.572,378.302 429.5,376.5 Z"/></g>
</svg>
