<?xml version="1.0" encoding="UTF-8"?>
<!DOCTYPE svg PUBLIC "-//W3C//DTD SVG 1.1//EN" "http://www.w3.org/Graphics/SVG/1.1/DTD/svg11.dtd">
<svg xmlns="http://www.w3.org/2000/svg" version="1.1" width="512px" height="512px" style="shape-rendering:geometricPrecision; text-rendering:geometricPrecision; image-rendering:optimizeQuality; fill-rule:evenodd; clip-rule:evenodd" xmlns:xlink="http://www.w3.org/1999/xlink">
<g><path style="opacity:0.981" fill="#000000" d="M 128.5,-0.5 C 201.167,-0.5 273.833,-0.5 346.5,-0.5C 360.479,2.32055 373.146,8.15389 384.5,17C 400.333,32.8333 416.167,48.6667 432,64.5C 442.91,78.2218 448.91,93.8885 450,111.5C 450.667,185.833 450.667,260.167 450,334.5C 447.695,345.637 440.862,351.637 429.5,352.5C 420.078,351.875 413.578,347.208 410,338.5C 409.982,261.47 409.316,184.47 408,107.5C 406.587,100.673 403.587,94.6734 399,89.5C 385.833,76.3333 372.667,63.1667 359.5,50C 351.945,43.8936 343.279,40.5603 333.5,40C 266.478,39.0314 199.478,39.3647 132.5,41C 114.801,46.3656 104.634,58.1989 102,76.5C 101.333,195.833 101.333,315.167 102,434.5C 104.634,452.801 114.801,464.634 132.5,470C 211.479,471.64 290.479,471.974 369.5,471C 395.939,467.552 409.439,452.386 410,425.5C 416.967,411.622 427.467,408.122 441.5,415C 447.427,419.521 450.427,425.521 450.5,433C 448.181,467.344 431.515,491.677 400.5,506C 394.469,508.168 388.469,510.001 382.5,511.5C 297.833,511.5 213.167,511.5 128.5,511.5C 88.5512,502.305 66.0512,477.305 61,436.5C 60.3333,315.833 60.3333,195.167 61,74.5C 66.0512,33.6949 88.5512,8.69489 128.5,-0.5 Z"/></g>
<g><path style="opacity:0.968" fill="#000000" d="M 248.5,85.5 C 261.134,83.8297 269.801,88.8297 274.5,100.5C 285.818,103.998 294.651,110.665 301,120.5C 305.209,142.288 296.375,151.788 274.5,149C 270.59,147.093 267.256,144.427 264.5,141C 259.338,138.044 254.005,137.711 248.5,140C 244.777,141.259 243.777,143.592 245.5,147C 256.342,151.725 267.342,156.059 278.5,160C 305.276,173.721 315.11,195.221 308,224.5C 300.962,240.028 289.129,250.028 272.5,254.5C 265.648,265.95 255.981,269.117 243.5,264C 239.447,261.613 236.447,258.28 234.5,254C 220.678,251.149 209.845,243.982 202,232.5C 197.33,217.335 202.497,207.502 217.5,203C 226.163,202.11 233.163,205.11 238.5,212C 245.985,214.421 253.652,215.088 261.5,214C 269.245,213.264 271.412,209.43 268,202.5C 266.442,200.641 264.609,199.141 262.5,198C 247.775,193.541 233.775,187.541 220.5,180C 201.894,162.925 198.394,143.092 210,120.5C 215.677,112.159 223.177,105.993 232.5,102C 235.352,93.9827 240.685,88.4827 248.5,85.5 Z"/></g>
<g><path style="opacity:0.97" fill="#000000" d="M 177.5,306.5 C 229.501,306.333 281.501,306.5 333.5,307C 345.5,311.83 350,320.664 347,333.5C 344.212,341.286 338.712,345.786 330.5,347C 280.5,347.667 230.5,347.667 180.5,347C 169.393,344.897 163.726,338.23 163.5,327C 163.679,317.005 168.346,310.171 177.5,306.5 Z"/></g>
<g><path style="opacity:0.97" fill="#000000" d="M 179.5,384.5 C 230.168,384.333 280.834,384.5 331.5,385C 344.477,389.106 349.644,397.939 347,411.5C 344.432,418.401 339.598,422.901 332.5,425C 281.167,425.667 229.833,425.667 178.5,425C 163.188,418.406 159.355,407.572 167,392.5C 170.378,388.406 174.545,385.739 179.5,384.5 Z"/></g>
</svg>
