<?xml version="1.0" encoding="UTF-8"?>
<!DOCTYPE svg PUBLIC "-//W3C//DTD SVG 1.1//EN" "http://www.w3.org/Graphics/SVG/1.1/DTD/svg11.dtd">
<svg xmlns="http://www.w3.org/2000/svg" version="1.1" width="512px" height="512px" style="shape-rendering:geometricPrecision; text-rendering:geometricPrecision; image-rendering:optimizeQuality; fill-rule:evenodd; clip-rule:evenodd" xmlns:xlink="http://www.w3.org/1999/xlink">
<g><path style="opacity:0.962" fill="#000000" d="M 19.5,15.5 C 22.1873,15.3359 24.854,15.5026 27.5,16C 29.3333,16.5 30.5,17.6667 31,19.5C 31.3333,99.5 31.6667,179.5 32,259.5C 50.2539,252.122 68.7539,245.455 87.5,239.5C 89.6341,239.515 91.6341,240.015 93.5,241C 104.356,250.023 115.356,258.856 126.5,267.5C 146.32,248.181 165.986,228.681 185.5,209C 189.781,206.891 193.948,207.058 198,209.5C 198.862,211.087 199.529,212.754 200,214.5C 204.24,241.273 208.906,267.94 214,294.5C 229.297,281.538 244.297,268.205 259,254.5C 260.715,248.887 263.549,244.054 267.5,240C 270.964,239.183 274.298,239.517 277.5,241C 279.172,244.036 280.839,247.036 282.5,250C 293.684,254.176 305.017,257.509 316.5,260C 332.792,234.585 348.958,209.085 365,183.5C 368.512,175.434 374.178,173.434 382,177.5C 386.746,186.661 391.746,195.661 397,204.5C 401.121,197.065 405.954,190.231 411.5,184C 414.167,183.333 416.833,183.333 419.5,184C 426.5,188.833 433.5,193.667 440.5,198.5C 443.328,191.509 446.161,184.509 449,177.5C 460.256,172.794 464.923,176.461 463,188.5C 460.598,195.205 458.098,201.872 455.5,208.5C 458.52,211.516 461.854,214.183 465.5,216.5C 470.811,198.262 475.978,179.929 481,161.5C 485.456,157.953 489.789,157.953 494,161.5C 495.006,163.534 495.506,165.7 495.5,168C 490.527,191.39 484.694,214.557 478,237.5C 474.744,239.429 471.244,239.929 467.5,239C 461.362,235.028 455.362,230.862 449.5,226.5C 443.125,243.792 436.459,260.959 429.5,278C 425.219,280.109 421.052,279.942 417,277.5C 409.92,264.338 402.587,251.338 395,238.5C 369.333,278.167 343.667,317.833 318,357.5C 313.667,360.167 309.333,360.167 305,357.5C 293.471,328.579 282.137,299.579 271,270.5C 246.409,323.35 222.076,376.35 198,429.5C 193.667,432.167 189.333,432.167 185,429.5C 170.424,395.353 155.591,361.353 140.5,327.5C 132.681,334.819 125.014,342.319 117.5,350C 113.219,352.109 109.052,351.942 105,349.5C 97.4016,327.037 90.4016,304.37 84,281.5C 66.907,303.349 49.5736,325.016 32,346.5C 31.5,390.832 31.3333,435.165 31.5,479.5C 36.8333,479.5 42.1667,479.5 47.5,479.5C 47.3335,467.495 47.5001,455.495 48,443.5C 49.5286,440.484 52.0286,439.151 55.5,439.5C 58.9714,439.151 61.4714,440.484 63,443.5C 63.4999,455.495 63.6665,467.495 63.5,479.5C 68.8333,479.5 74.1667,479.5 79.5,479.5C 79.3334,459.497 79.5,439.497 80,419.5C 81.5286,416.484 84.0286,415.151 87.5,415.5C 90.9714,415.151 93.4714,416.484 95,419.5C 95.5,439.497 95.6666,459.497 95.5,479.5C 100.833,479.5 106.167,479.5 111.5,479.5C 111.333,454.164 111.5,428.831 112,403.5C 113.529,400.484 116.029,399.151 119.5,399.5C 122.971,399.151 125.471,400.484 127,403.5C 127.5,428.831 127.667,454.164 127.5,479.5C 132.833,479.5 138.167,479.5 143.5,479.5C 143.333,464.83 143.5,450.163 144,435.5C 145.529,432.484 148.029,431.151 151.5,431.5C 154.971,431.151 157.471,432.484 159,435.5C 159.5,450.163 159.667,464.83 159.5,479.5C 164.833,479.5 170.167,479.5 175.5,479.5C 175.334,472.825 175.5,466.158 176,459.5C 177.529,456.484 180.029,455.151 183.5,455.5C 186.971,455.151 189.471,456.484 191,459.5C 191.5,466.158 191.666,472.825 191.5,479.5C 199.5,479.5 207.5,479.5 215.5,479.5C 215.334,472.825 215.5,466.158 216,459.5C 217.529,456.484 220.029,455.151 223.5,455.5C 226.971,455.151 229.471,456.484 231,459.5C 231.5,466.158 231.666,472.825 231.5,479.5C 236.833,479.5 242.167,479.5 247.5,479.5C 247.333,456.831 247.5,434.164 248,411.5C 249.529,408.484 252.029,407.151 255.5,407.5C 258.971,407.151 261.471,408.484 263,411.5C 263.5,434.164 263.667,456.831 263.5,479.5C 268.833,479.5 274.167,479.5 279.5,479.5C 279.333,464.83 279.5,450.163 280,435.5C 281.529,432.484 284.029,431.151 287.5,431.5C 290.971,431.151 293.471,432.484 295,435.5C 295.5,450.163 295.667,464.83 295.5,479.5C 300.833,479.5 306.167,479.5 311.5,479.5C 311.333,467.495 311.5,455.495 312,443.5C 313.529,440.484 316.029,439.151 319.5,439.5C 322.971,439.151 325.471,440.484 327,443.5C 327.5,455.495 327.667,467.495 327.5,479.5C 332.833,479.5 338.167,479.5 343.5,479.5C 343.333,467.495 343.5,455.495 344,443.5C 345.529,440.484 348.029,439.151 351.5,439.5C 354.971,439.151 357.471,440.484 359,443.5C 359.5,455.495 359.667,467.495 359.5,479.5C 367.5,479.5 375.5,479.5 383.5,479.5C 383.334,472.825 383.5,466.158 384,459.5C 385.529,456.484 388.029,455.151 391.5,455.5C 394.971,455.151 397.471,456.484 399,459.5C 399.5,466.158 399.666,472.825 399.5,479.5C 404.833,479.5 410.167,479.5 415.5,479.5C 415.333,456.831 415.5,434.164 416,411.5C 417.529,408.484 420.029,407.151 423.5,407.5C 426.971,407.151 429.471,408.484 431,411.5C 431.5,434.164 431.667,456.831 431.5,479.5C 436.833,479.5 442.167,479.5 447.5,479.5C 447.333,464.83 447.5,450.163 448,435.5C 449.529,432.484 452.029,431.151 455.5,431.5C 458.971,431.151 461.471,432.484 463,435.5C 463.5,450.163 463.667,464.83 463.5,479.5C 468.833,479.5 474.167,479.5 479.5,479.5C 479.333,467.495 479.5,455.495 480,443.5C 481.529,440.484 484.029,439.151 487.5,439.5C 490.971,439.151 493.471,440.484 495,443.5C 495.667,459.5 495.667,475.5 495,491.5C 494.5,493.333 493.333,494.5 491.5,495C 334.167,495.667 176.833,495.667 19.5,495C 18.5838,494.626 17.7504,494.126 17,493.5C 15.3363,335.58 15.003,177.58 16,19.5C 16.6897,17.6498 17.8564,16.3164 19.5,15.5 Z M 290.5,271.5 C 298.573,273.691 306.573,276.191 314.5,279C 318.295,279.837 321.961,279.504 325.5,278C 342,252.167 358.5,226.333 375,200.5C 378.707,207.414 382.54,214.248 386.5,221C 362.278,257.956 337.944,294.789 313.5,331.5C 305.264,311.698 297.597,291.698 290.5,271.5 Z M 417.5,203.5 C 423.457,207.457 429.123,211.79 434.5,216.5C 430.055,227.725 425.888,239.058 422,250.5C 416.445,241.224 411.278,231.724 406.5,222C 410.057,215.712 413.724,209.545 417.5,203.5 Z M 239.5,295.5 C 223.959,330.919 208.126,366.253 192,401.5C 178.008,369.534 164.008,337.534 150,305.5C 145.948,303.058 141.781,302.891 137.5,305C 130.333,312.167 123.167,319.333 116,326.5C 109.175,306.695 103.175,286.695 98,266.5C 105.833,273 113.667,279.5 121.5,286C 124.702,287.483 128.036,287.817 131.5,287C 149.652,269.682 167.652,252.182 185.5,234.5C 190.322,260.432 194.822,286.432 199,312.5C 199.597,317.548 202.43,319.882 207.5,319.5C 209.634,319.485 211.634,318.985 213.5,318C 221.743,309.917 230.41,302.417 239.5,295.5 Z M 78.5,260.5 C 63.2143,280.291 47.7143,299.958 32,319.5C 31.1672,305.488 31.3339,291.488 32.5,277.5C 47.7029,271.433 63.0362,265.766 78.5,260.5 Z"/></g>
<g><path style="opacity:0.973" fill="#000000" d="M 242.5,31.5 C 283.063,28.0202 312.23,44.3535 330,80.5C 343.349,121.444 332.849,154.611 298.5,180C 274.749,192.991 250.082,194.991 224.5,186C 186.353,166.878 170.52,136.045 177,93.5C 183.794,67.0417 199.627,48.2083 224.5,37C 230.531,34.8324 236.531,32.999 242.5,31.5 Z M 252.5,56.5 C 258.326,55.4887 261.826,57.822 263,63.5C 263.497,66.146 263.664,68.8127 263.5,71.5C 268.08,71.1134 272.414,71.9468 276.5,74C 280.258,80.5074 278.592,84.8407 271.5,87C 264.061,87.0699 256.728,87.7365 249.5,89C 247.571,92.2559 247.071,95.7559 248,99.5C 248.5,101.333 249.667,102.5 251.5,103C 275.023,105.904 282.857,118.404 275,140.5C 271.914,144.257 268.248,147.257 264,149.5C 264.105,155.004 262.939,160.171 260.5,165C 254.032,168.18 249.866,166.347 248,159.5C 247.503,156.854 247.336,154.187 247.5,151.5C 242.92,151.887 238.586,151.053 234.5,149C 230.742,142.493 232.408,138.159 239.5,136C 246.939,135.93 254.272,135.263 261.5,134C 263.429,130.744 263.929,127.244 263,123.5C 262.5,121.667 261.333,120.5 259.5,120C 235.977,117.096 228.143,104.596 236,82.5C 239.061,78.7737 242.728,75.7737 247,73.5C 247.02,68.2774 248.02,63.2774 250,58.5C 250.995,57.9341 251.828,57.2674 252.5,56.5 Z"/></g>
</svg>
