<?xml version="1.0" encoding="UTF-8"?>
<!DOCTYPE svg PUBLIC "-//W3C//DTD SVG 1.1//EN" "http://www.w3.org/Graphics/SVG/1.1/DTD/svg11.dtd">
<svg xmlns="http://www.w3.org/2000/svg" version="1.1" width="512px" height="512px" style="shape-rendering:geometricPrecision; text-rendering:geometricPrecision; image-rendering:optimizeQuality; fill-rule:evenodd; clip-rule:evenodd" xmlns:xlink="http://www.w3.org/1999/xlink">
<g><path style="opacity:0.983" fill="#000000" d="M 42.5,-0.5 C 156.167,-0.5 269.833,-0.5 383.5,-0.5C 406.704,4.86995 421.204,19.2033 427,42.5C 427.167,90.1702 427.667,137.837 428.5,185.5C 475.211,205.535 502.878,240.535 511.5,290.5C 511.5,301.5 511.5,312.5 511.5,323.5C 502.876,373.467 475.209,408.467 428.5,428.5C 427.667,453.16 427.167,477.827 427,502.5C 425.312,506.685 422.479,509.685 418.5,511.5C 414.5,511.5 410.5,511.5 406.5,511.5C 395.471,506.664 384.138,502.33 372.5,498.5C 360.862,502.33 349.529,506.664 338.5,511.5C 334.5,511.5 330.5,511.5 326.5,511.5C 315.471,506.664 304.138,502.33 292.5,498.5C 280.862,502.33 269.529,506.664 258.5,511.5C 254.5,511.5 250.5,511.5 246.5,511.5C 235.471,506.664 224.138,502.33 212.5,498.5C 200.862,502.33 189.529,506.664 178.5,511.5C 174.5,511.5 170.5,511.5 166.5,511.5C 155.471,506.664 144.138,502.33 132.5,498.5C 120.862,502.33 109.529,506.664 98.5,511.5C 94.5,511.5 90.5,511.5 86.5,511.5C 82.5212,509.685 79.6878,506.685 78,502.5C 77.5,396.834 77.3333,291.167 77.5,185.5C 54.4976,185.667 31.4976,185.5 8.5,185C 4.31481,183.312 1.31481,180.479 -0.5,176.5C -0.5,131.833 -0.5,87.1667 -0.5,42.5C 5.5,19.8333 19.8333,5.5 42.5,-0.5 Z M 102.5,30.5 C 192.666,29.3343 282.999,29.1676 373.5,30C 387.333,31.8333 395.167,39.6667 397,53.5C 397.5,94.832 397.667,136.165 397.5,177.5C 343.595,173.789 301.595,194.122 271.5,238.5C 229.837,239.333 188.171,239.833 146.5,240C 138.085,244.348 135.252,251.181 138,260.5C 139.5,264.667 142.333,267.5 146.5,269C 183.505,269.167 220.505,269.667 257.5,270.5C 254.254,279.887 252.587,289.554 252.5,299.5C 217.165,299.333 181.832,299.5 146.5,300C 138.085,304.348 135.252,311.181 138,320.5C 139.5,324.667 142.333,327.5 146.5,329C 182.167,329.333 217.833,329.667 253.5,330C 255.8,339.695 258.8,349.195 262.5,358.5C 223.838,359.333 185.171,359.833 146.5,360C 138.085,364.348 135.252,371.181 138,380.5C 139.5,384.667 142.333,387.5 146.5,389C 191.208,389.828 235.875,389.661 280.5,388.5C 311.181,424.403 350.181,440.403 397.5,436.5C 397.667,449.171 397.5,461.838 397,474.5C 387.476,469.098 377.31,466.598 366.5,467C 355.27,471.448 343.937,475.615 332.5,479.5C 321.063,475.615 309.73,471.448 298.5,467C 294.5,466.333 290.5,466.333 286.5,467C 275.27,471.448 263.937,475.615 252.5,479.5C 241.063,475.615 229.73,471.448 218.5,467C 214.5,466.333 210.5,466.333 206.5,467C 195.27,471.448 183.937,475.615 172.5,479.5C 161.063,475.615 149.73,471.448 138.5,467C 127.69,466.598 117.524,469.098 108,474.5C 107.667,330.5 107.333,186.5 107,42.5C 106.162,38.1402 104.662,34.1402 102.5,30.5 Z M 46.5,30.5 C 60.9808,28.3182 70.8141,33.9849 76,47.5C 77.4605,83.465 77.9605,119.465 77.5,155.5C 61.5,155.5 45.5,155.5 29.5,155.5C 29.3333,121.498 29.5,87.4984 30,53.5C 31.0749,42.601 36.5749,34.9343 46.5,30.5 Z M 381.5,207.5 C 425.2,209.756 456.034,230.756 474,270.5C 488.531,314.211 479.031,351.711 445.5,383C 403.167,414.333 360.833,414.333 318.5,383C 284.969,351.711 275.469,314.211 290,270.5C 307.875,231.119 338.375,210.119 381.5,207.5 Z"/></g>
<g><path style="opacity:0.988" fill="#000000" d="M 146.5,59.5 C 190.835,59.3333 235.168,59.5 279.5,60C 287.915,64.3476 290.748,71.1809 288,80.5C 286.5,84.6667 283.667,87.5 279.5,89C 235.167,89.6667 190.833,89.6667 146.5,89C 137.525,83.8483 135.025,76.3483 139,66.5C 141.015,63.5883 143.515,61.255 146.5,59.5 Z"/></g>
<g><path style="opacity:0.96" fill="#000000" d="M 327.5,59.5 C 338.603,59.0455 349.603,59.5455 360.5,61C 363.473,62.7648 365.64,65.2648 367,68.5C 369.748,77.8191 366.915,84.6524 358.5,89C 347.402,89.9537 336.402,89.6204 325.5,88C 320.408,84.9833 318.074,80.4833 318.5,74.5C 318.643,67.7093 321.643,62.7093 327.5,59.5 Z"/></g>
<g><path style="opacity:0.988" fill="#000000" d="M 146.5,119.5 C 190.835,119.333 235.168,119.5 279.5,120C 287.915,124.348 290.748,131.181 288,140.5C 286.5,144.667 283.667,147.5 279.5,149C 235.167,149.667 190.833,149.667 146.5,149C 137.525,143.848 135.025,136.348 139,126.5C 141.015,123.588 143.515,121.255 146.5,119.5 Z"/></g>
<g><path style="opacity:0.96" fill="#000000" d="M 327.5,119.5 C 338.603,119.046 349.603,119.546 360.5,121C 363.473,122.765 365.64,125.265 367,128.5C 369.748,137.819 366.915,144.652 358.5,149C 347.402,149.954 336.402,149.62 325.5,148C 320.408,144.983 318.074,140.483 318.5,134.5C 318.643,127.709 321.643,122.709 327.5,119.5 Z"/></g>
<g><path style="opacity:0.988" fill="#000000" d="M 146.5,179.5 C 190.835,179.333 235.168,179.5 279.5,180C 287.915,184.348 290.748,191.181 288,200.5C 286.5,204.667 283.667,207.5 279.5,209C 235.167,209.667 190.833,209.667 146.5,209C 137.525,203.848 135.025,196.348 139,186.5C 141.015,183.588 143.515,181.255 146.5,179.5 Z"/></g>
<g><path style="opacity:0.961" fill="#000000" d="M 381.5,231.5 C 389.621,232.123 394.954,236.29 397.5,244C 411.545,246.036 416.712,253.87 413,267.5C 411.108,271.058 408.275,273.558 404.5,275C 395.425,275.085 386.425,275.752 377.5,277C 373.263,281.061 373.597,284.728 378.5,288C 387.167,292.333 395.833,296.667 404.5,301C 418.056,311.662 422.889,325.496 419,342.5C 415.206,353.294 408.206,361.294 398,366.5C 396.654,375.846 391.32,381.18 382,382.5C 374.144,381.642 368.978,377.475 366.5,370C 351.406,367.31 346.573,358.81 352,344.5C 353.938,341.894 356.438,340.061 359.5,339C 368.601,338.945 377.601,338.278 386.5,337C 390.737,332.939 390.403,329.272 385.5,326C 376.833,321.667 368.167,317.333 359.5,313C 345.944,302.338 341.111,288.504 345,271.5C 348.794,260.706 355.794,252.706 366,247.5C 367.359,238.309 372.526,232.976 381.5,231.5 Z"/></g>
</svg>
